<svg width="35" height="35" viewBox="0 0 35 35" fill="none" xmlns="http://www.w3.org/2000/svg">
<path d="M14.3935 8.26869L9.40605 11.3021L7.13105 7.56872C6.2998 6.19789 6.7373 4.38955 8.10813 3.5583C9.47897 2.72705 11.2873 3.16453 12.1185 4.53536L14.3935 8.26869Z" stroke="white" stroke-width="1.5" stroke-linecap="round" stroke-linejoin="round"/>
<path d="M17.2376 13.3583L12.6292 16.1584C9.94588 17.7917 9.1292 21.0875 10.4271 23.7125L13.4167 29.8084C14.3792 31.7771 16.7126 32.4625 18.5792 31.3104L27.9563 25.6084C29.8375 24.4709 30.2896 22.0938 28.9917 20.3292L24.9521 14.875C23.2021 12.5125 19.9209 11.725 17.2376 13.3583Z" stroke="white" stroke-width="1.5" stroke-linecap="round" stroke-linejoin="round"/>
<path d="M15.6868 7.43448L8.21338 11.9854L11.2473 16.9676L18.7207 12.4167L15.6868 7.43448Z" stroke="white" stroke-width="1.5" stroke-linecap="round" stroke-linejoin="round"/>
<path d="M20.8691 24.5146L23.2754 28.4668" stroke="white" stroke-width="1.5" stroke-linecap="round" stroke-linejoin="round"/>
<path d="M17.1357 26.7896L19.542 30.7417" stroke="white" stroke-width="1.5" stroke-linecap="round" stroke-linejoin="round"/>
<path d="M24.6021 22.2395L27.0083 26.1916" stroke="white" stroke-width="1.5" stroke-linecap="round" stroke-linejoin="round"/>
</svg>