<svg width="35" height="35" viewBox="0 0 35 35" fill="none" xmlns="http://www.w3.org/2000/svg">
<path d="M26.9354 24.5439L27.5041 29.1522C27.6499 30.3626 26.352 31.2084 25.3166 30.5813L19.2062 26.9501C18.5354 26.9501 17.8791 26.9064 17.2375 26.8189C18.3166 25.5501 18.9583 23.9459 18.9583 22.2105C18.9583 18.0688 15.3708 14.7147 10.9374 14.7147C9.24577 14.7147 7.68536 15.1959 6.38745 16.0417C6.3437 15.6772 6.3291 15.3126 6.3291 14.9334C6.3291 8.29798 12.0895 2.91675 19.2062 2.91675C26.3229 2.91675 32.0833 8.29798 32.0833 14.9334C32.0833 18.8709 30.0562 22.3564 26.9354 24.5439Z" stroke="white" stroke-width="1.5" stroke-linecap="round" stroke-linejoin="round"/>
<path d="M18.9582 22.2104C18.9582 23.9458 18.3165 25.55 17.2373 26.8187C15.7936 28.5687 13.504 29.6916 10.9373 29.6916L7.13109 31.952C6.48942 32.3458 5.67275 31.8062 5.76025 31.0625L6.12483 28.1896C4.17067 26.8333 2.9165 24.6604 2.9165 22.2104C2.9165 19.6437 4.28734 17.3833 6.38734 16.0416C7.68526 15.1958 9.24567 14.7146 10.9373 14.7146C15.3707 14.7146 18.9582 18.0687 18.9582 22.2104Z" stroke="white" stroke-width="1.5" stroke-linecap="round" stroke-linejoin="round"/>
</svg>