<svg width="35" height="35" viewBox="0 0 35 35" fill="none" xmlns="http://www.w3.org/2000/svg">
<path d="M26.2492 10.4415C26.1617 10.4269 26.0596 10.4269 25.9721 10.4415C23.9596 10.3686 22.3555 8.72067 22.3555 6.67901C22.3555 4.59359 24.0325 2.9165 26.118 2.9165C28.2034 2.9165 29.8805 4.60817 29.8805 6.67901C29.8659 8.72067 28.2617 10.3686 26.2492 10.4415Z" stroke="white" stroke-width="1.5" stroke-linecap="round" stroke-linejoin="round"/>
<path d="M24.7483 21.0582C26.7463 21.3936 28.9483 21.0436 30.4942 20.0082C32.5504 18.6373 32.5504 16.3915 30.4942 15.0207C28.9338 13.9852 26.7025 13.6352 24.7046 13.9852" stroke="white" stroke-width="1.5" stroke-linecap="round" stroke-linejoin="round"/>
<path d="M8.70645 10.4415C8.79395 10.4269 8.89603 10.4269 8.98353 10.4415C10.996 10.3686 12.6002 8.72067 12.6002 6.67901C12.6002 4.59359 10.9231 2.9165 8.8377 2.9165C6.75228 2.9165 5.0752 4.60817 5.0752 6.67901C5.08978 8.72067 6.69395 10.3686 8.70645 10.4415Z" stroke="white" stroke-width="1.5" stroke-linecap="round" stroke-linejoin="round"/>
<path d="M10.2084 21.0582C8.21051 21.3936 6.00843 21.0436 4.4626 20.0082C2.40635 18.6373 2.40635 16.3915 4.4626 15.0207C6.02301 13.9852 8.25426 13.6352 10.2522 13.9852" stroke="white" stroke-width="1.5" stroke-linecap="round" stroke-linejoin="round"/>
<path d="M17.4997 21.3356C17.4122 21.321 17.3101 21.321 17.2226 21.3356C15.2101 21.2626 13.606 19.6147 13.606 17.573C13.606 15.4876 15.283 13.8105 17.3685 13.8105C19.4539 13.8105 21.131 15.5022 21.131 17.573C21.1164 19.6147 19.5122 21.2772 17.4997 21.3356Z" stroke="white" stroke-width="1.5" stroke-linecap="round" stroke-linejoin="round"/>
<path d="M13.2565 25.9292C11.2003 27.3 11.2003 29.5458 13.2565 30.9166C15.5899 32.4771 19.4107 32.4771 21.744 30.9166C23.8003 29.5458 23.8003 27.3 21.744 25.9292C19.4253 24.3833 15.5899 24.3833 13.2565 25.9292Z" stroke="white" stroke-width="1.5" stroke-linecap="round" stroke-linejoin="round"/>
</svg>