<svg width="35" height="35" viewBox="0 0 35 35" fill="none" xmlns="http://www.w3.org/2000/svg">
<path d="M22.7357 17.8792C26.8674 17.8792 30.2169 14.5298 30.2169 10.398C30.2169 6.26623 26.8674 2.91675 22.7357 2.91675C18.6039 2.91675 15.2544 6.26623 15.2544 10.398C15.2544 14.5298 18.6039 17.8792 22.7357 17.8792Z" stroke="white" stroke-width="1.5" stroke-miterlimit="10"/>
<path d="M9.27485 28.35C11.7555 28.35 13.7665 26.339 13.7665 23.8584C13.7665 21.3777 11.7555 19.3667 9.27485 19.3667C6.79417 19.3667 4.7832 21.3777 4.7832 23.8584C4.7832 26.339 6.79417 28.35 9.27485 28.35Z" stroke="white" stroke-width="1.5" stroke-miterlimit="10"/>
<path d="M24.2377 32.0834C26.2996 32.0834 27.9711 30.4119 27.9711 28.35C27.9711 26.2882 26.2996 24.6167 24.2377 24.6167C22.1759 24.6167 20.5044 26.2882 20.5044 28.35C20.5044 30.4119 22.1759 32.0834 24.2377 32.0834Z" stroke="white" stroke-width="1.5" stroke-miterlimit="10"/>
</svg>