<svg width="35" height="35" viewBox="0 0 35 35" fill="none" xmlns="http://www.w3.org/2000/svg">
<path d="M14.5835 25.5208H20.4168" stroke="white" stroke-width="1.5" stroke-linecap="round" stroke-linejoin="round"/>
<path d="M2.9165 25.5208V10.9374C2.9165 5.10409 4.37484 3.64575 10.2082 3.64575" stroke="white" stroke-width="1.5" stroke-linecap="round" stroke-linejoin="round"/>
<path d="M32.0832 25.5208V10.9374C32.0832 5.10409 30.6248 3.64575 24.7915 3.64575" stroke="white" stroke-width="1.5" stroke-linecap="round" stroke-linejoin="round"/>
<path d="M14.5832 23.202V27.9999C14.5832 30.9166 13.4165 32.0832 10.4998 32.0832H6.99984C4.08317 32.0832 2.9165 30.9166 2.9165 27.9999V23.202C2.9165 20.2853 4.08317 19.1187 6.99984 19.1187H10.4998C13.4165 19.1187 14.5832 20.2853 14.5832 23.202Z" stroke="white" stroke-width="1.5" stroke-linecap="round" stroke-linejoin="round"/>
<path d="M32.0832 23.202V27.9999C32.0832 30.9166 30.9165 32.0832 27.9998 32.0832H24.4998C21.5832 32.0832 20.4165 30.9166 20.4165 27.9999V23.202C20.4165 20.2853 21.5832 19.1187 24.4998 19.1187H27.9998C30.9165 19.1187 32.0832 20.2853 32.0832 23.202Z" stroke="white" stroke-width="1.5" stroke-linecap="round" stroke-linejoin="round"/>
</svg>