<svg width="35" height="35" viewBox="0 0 35 35" fill="none" xmlns="http://www.w3.org/2000/svg">
<path d="M9.77069 26.3333H6.05196C3.36862 26.3333 1.82275 24.7875 1.82275 22.1041V5.0417C1.82275 2.35837 3.36862 0.8125 6.05196 0.8125H12.3228C15.0061 0.8125 16.5519 2.35837 16.5519 5.0417V7.73958C16.5519 8.3375 16.0561 8.83333 15.4581 8.83333C14.8602 8.83333 15 8.3375 15 7.73958C15 7.73958 15 6.5292 15 5.0417C15 3.5542 13.8103 2 12.3228 2H6.05196C4.56446 2 3 3.5542 3 5.0417V22.1041C3 23.5916 4.56446 24.9895 6.05196 24.9895H9.77069C10.3686 24.9895 9.5 24.8916 9.5 25.4895C9.5 26.0874 10.3686 26.3333 9.77069 26.3333Z" fill="white"/>
<path d="M21.8168 33.1771H13.3001C10.3689 33.1771 8.67725 31.4854 8.67725 28.5542V12.2791C8.67725 9.34789 10.3689 7.65625 13.3001 7.65625H21.8168C24.7481 7.65625 26.4251 9.34789 26.4251 12.2791V28.5542C26.4251 31.4854 24.7481 33.1771 21.8168 33.1771ZM14.0625 9C12.3125 9 10 10.5291 10 12.2791V28.5542C10 30.3042 11.75 32 13.5 32H21.8168C23.5523 32 25 30.25 25 28.5V12.2791C25 10.5291 23.5523 9 21.8168 9H14.0625Z" fill="white"/>
<path d="M28.9475 27.3438H25.3309C24.733 27.3438 25.3309 27.2366 25.3309 26.6387C25.3309 26.0407 24.733 26 25.3309 26H28.9475C30.435 26 31.9998 24.6021 31.9998 23.1146V6.0522C31.9998 4.5647 30.435 3 28.9475 3H22.0414C20.5539 3 19.5 4.5647 19.5 6.0522L19.5002 8.75008C19.5002 9.348 19.5979 8.5 19 8.5C18.4021 8.5 18.4476 9.348 18.4476 8.75008V6.0522C18.4476 3.36887 19.9934 1.823 22.6767 1.823H28.9475C31.6308 1.823 33.1767 3.36887 33.1767 6.0522V23.1146C33.1767 25.798 31.6308 27.3438 28.9475 27.3438Z" fill="white"/>
<path d="M20.4168 17.1355H14.5835C13.9856 17.1355 13.4897 16.6397 13.4897 16.0417C13.4897 15.4438 13.9856 14.948 14.5835 14.948H20.4168C21.0147 14.948 21.5106 15.4438 21.5106 16.0417C21.5106 16.6397 21.0147 17.1355 20.4168 17.1355Z" fill="white"/>
<path d="M20.4168 21.5105H14.5835C13.9856 21.5105 13.4897 21.0147 13.4897 20.4167C13.4897 19.8188 13.9856 19.323 14.5835 19.323H20.4168C21.0147 19.323 21.5106 19.8188 21.5106 20.4167C21.5106 21.0147 21.0147 21.5105 20.4168 21.5105Z" fill="white"/>
<path d="M17.5 33.177C16.9021 33.177 16.4062 32.6812 16.4062 32.0833V27.7083C16.4062 27.1103 16.9021 26.6145 17.5 26.6145C18.0979 26.6145 18.5938 27.1103 18.5938 27.7083V32.0833C18.5938 32.6812 18.0979 33.177 17.5 33.177Z" fill="white"/>
</svg>