<svg width="48" height="48" viewBox="0 0 48 48" fill="none" xmlns="http://www.w3.org/2000/svg">
<circle cx="24" cy="24" r="24" fill="#979A9C"/>
<g clip-path="url(#clip0_1265_903)">
<path d="M36.7043 30.3143C36.2282 31.4043 35.6646 32.4077 35.0116 33.3302C34.1215 34.5878 33.3927 35.4583 32.831 35.9417C31.9604 36.7351 31.0275 37.1415 30.0286 37.1646C29.3115 37.1646 28.4467 36.9624 27.44 36.5522C26.43 36.1439 25.5018 35.9417 24.6531 35.9417C23.763 35.9417 22.8084 36.1439 21.7873 36.5522C20.7647 36.9624 19.9409 37.1761 19.311 37.1973C18.3531 37.2378 17.3983 36.8199 16.4452 35.9417C15.8369 35.4159 15.0761 34.5146 14.1646 33.2377C13.1867 31.8742 12.3827 30.2931 11.7528 28.4905C11.0783 26.5434 10.7401 24.658 10.7401 22.8327C10.7401 20.7417 11.196 18.9384 12.1093 17.4271C12.827 16.2133 13.7818 15.2557 14.9768 14.5528C16.1718 13.8498 17.463 13.4916 18.8535 13.4687C19.6144 13.4687 20.6121 13.7019 21.852 14.1603C23.0885 14.6202 23.8823 14.8534 24.2304 14.8534C24.4906 14.8534 25.3726 14.5807 26.8676 14.037C28.2815 13.5328 29.4747 13.3241 30.4523 13.4063C33.1012 13.6182 35.0913 14.6529 36.4147 16.5172C34.0457 17.9396 32.8738 19.9319 32.8971 22.4877C32.9185 24.4785 33.6473 26.1351 35.0796 27.4505C35.7287 28.061 36.4536 28.5328 37.2601 28.8679C37.0852 29.3706 36.9006 29.8521 36.7043 30.3143ZM30.6291 6.62418C30.6291 8.18453 30.0539 9.64143 28.9073 10.9899C27.5235 12.593 25.8499 13.5194 24.0349 13.3732C24.0118 13.186 23.9984 12.989 23.9984 12.7819C23.9984 11.284 24.6564 9.68091 25.825 8.37017C26.4084 7.70651 27.1504 7.1547 28.0502 6.7145C28.9481 6.28087 29.7974 6.04107 30.5961 6C30.6194 6.2086 30.6291 6.4172 30.6291 6.62416V6.62418Z" fill="white"/>
</g>
<defs>
<clipPath id="clip0_1265_903">
<rect width="31.2" height="31.2" fill="white" transform="translate(8.40015 6)"/>
</clipPath>
</defs>
</svg>