<svg width="17" height="30" viewBox="0 0 17 30" fill="none" xmlns="http://www.w3.org/2000/svg">
<path d="M13.6937 29.5833C13.3514 29.5844 13.0131 29.5157 12.7038 29.3823C12.3944 29.2489 12.1219 29.0542 11.9062 28.8125L0.837489 16.3125C0.500426 15.9397 0.316162 15.4721 0.316162 14.9896C0.316162 14.507 0.500426 14.0394 0.837489 13.6667L12.2958 1.16667C12.6848 0.74122 13.2438 0.473669 13.8497 0.422878C14.4557 0.372087 15.0591 0.542216 15.5271 0.895838C15.9951 1.24946 16.2894 1.75761 16.3452 2.3085C16.4011 2.85938 16.214 3.40789 15.825 3.83334L5.58124 15L15.4812 26.1667C15.7615 26.4725 15.9395 26.8448 15.9942 27.2397C16.0489 27.6346 15.9781 28.0355 15.79 28.395C15.602 28.7544 15.3046 29.0573 14.9331 29.2679C14.5616 29.4785 14.1315 29.588 13.6937 29.5833Z" fill="white"/>
</svg>