<svg width="14" height="16" viewBox="0 0 14 16" fill="none" xmlns="http://www.w3.org/2000/svg">
<path d="M1.07152 16C0.644386 16 0.324034 15.8183 0.110466 15.4549C-0.103102 15.0701 -0.00699615 14.6319 0.398783 14.1403L5.49237 7.75952L0.75117 1.85972C0.345391 1.36807 0.249285 0.940548 0.462853 0.577154C0.676421 0.192385 0.996772 0 1.42391 0C1.76562 0 2.04325 0.0641284 2.25682 0.192385C2.47039 0.299265 2.67328 0.480962 2.86549 0.737475L6.99803 5.96393L11.1626 0.737475C11.3548 0.480962 11.5577 0.299265 11.7713 0.192385C11.9848 0.0641284 12.2518 0 12.5721 0C13.0206 0 13.341 0.192385 13.5332 0.577154C13.7468 0.940548 13.6507 1.37876 13.2449 1.89178L8.50368 7.75952L13.6293 14.1403C14.0137 14.6319 14.0992 15.0701 13.8856 15.4549C13.672 15.8183 13.341 16 12.8925 16C12.3159 16 11.8353 15.7542 11.4509 15.2625L6.96599 9.61924L2.5131 15.2625C2.32089 15.4977 2.118 15.6794 1.90444 15.8076C1.69087 15.9359 1.41323 16 1.07152 16Z" fill="#575757"/>
</svg>
