<svg width="100" height="100" viewBox="0 0 100 100" fill="none" xmlns="http://www.w3.org/2000/svg">
<path d="M25 41.6666V33.3333C25 19.5416 29.1667 8.33325 50 8.33325C70.8333 8.33325 75 19.5416 75 33.3333V41.6666" stroke="#292D32" stroke-width="1.5" stroke-linecap="round" stroke-linejoin="round"/>
<path d="M50 77.0833C55.753 77.0833 60.4167 72.4196 60.4167 66.6667C60.4167 60.9137 55.753 56.25 50 56.25C44.247 56.25 39.5833 60.9137 39.5833 66.6667C39.5833 72.4196 44.247 77.0833 50 77.0833Z" stroke="#292D32" stroke-width="1.5" stroke-linecap="round" stroke-linejoin="round"/>
<path d="M70.8333 91.6667H29.1667C12.5 91.6667 8.33333 87.5001 8.33333 70.8334V62.5001C8.33333 45.8334 12.5 41.6667 29.1667 41.6667H70.8333C87.5 41.6667 91.6667 45.8334 91.6667 62.5001V70.8334C91.6667 87.5001 87.5 91.6667 70.8333 91.6667Z" stroke="#292D32" stroke-width="1.5" stroke-linecap="round" stroke-linejoin="round"/>
</svg>