<svg width="28" height="28" viewBox="0 0 28 28" fill="none" xmlns="http://www.w3.org/2000/svg">
<circle cx="13.5903" cy="13.5903" r="13.5903" fill="#27ACD6"/>
<path d="M13.5904 18.5323C12.989 18.5323 12.6883 18.2251 12.6883 17.6106V14.3944H9.53093C8.9426 14.3944 8.64844 14.1068 8.64844 13.5315C8.64844 12.9563 8.9426 12.6687 9.53093 12.6687H12.6883V9.55054C12.6883 8.94914 12.989 8.64844 13.5904 8.64844C14.1918 8.64844 14.4925 8.94914 14.4925 9.55054V12.6687H17.6498C18.2381 12.6687 18.5323 12.9563 18.5323 13.5315C18.5323 14.1068 18.2381 14.3944 17.6498 14.3944H14.4925V17.6106C14.4925 18.2251 14.1918 18.5323 13.5904 18.5323Z" fill="white"/>
</svg>
