<svg width="16" height="17" viewBox="0 0 16 17" fill="none" xmlns="http://www.w3.org/2000/svg">
<path fill-rule="evenodd" clip-rule="evenodd" d="M2.66634 3.47754H13.333C14.0663 3.47754 14.6663 4.07754 14.6663 4.81087V12.8109C14.6663 13.5442 14.0663 14.1442 13.333 14.1442H2.66634C1.93301 14.1442 1.33301 13.5442 1.33301 12.8109L1.33967 4.81087C1.33967 4.07754 1.93301 3.47754 2.66634 3.47754ZM8.35301 9.25754L13.0663 6.31087C13.233 6.20421 13.333 6.02421 13.333 5.83087C13.333 5.38421 12.8463 5.11754 12.4663 5.35087L7.99967 8.14421L3.53301 5.35087C3.15301 5.11754 2.66634 5.38421 2.66634 5.83087C2.66634 6.02421 2.76634 6.20421 2.93301 6.31087L7.64634 9.25754C7.85967 9.39087 8.13967 9.39087 8.35301 9.25754Z" fill="#5B5B5B"/>
</svg>
