<svg width="31" height="31" viewBox="0 0 31 31" fill="none" xmlns="http://www.w3.org/2000/svg">
<path fill-rule="evenodd" clip-rule="evenodd" d="M29.065 0H1.45425C1.1214 0 0.802173 0.135077 0.566809 0.375516C0.331445 0.615955 0.199219 0.94206 0.199219 1.28209L0.199219 29.4881C0.199219 29.8281 0.331445 30.1543 0.566809 30.3947C0.802173 30.6351 1.1214 30.7702 1.45425 30.7702H16.2009V19.2314H12.4358V14.4235H16.2009V10.5773C16.2009 6.60277 18.6645 4.64758 22.1347 4.64758C23.7963 4.64758 25.2258 4.77451 25.6412 4.82964V8.98362L23.2353 8.9849C21.3478 8.9849 20.9072 9.9016 20.9072 11.2452V14.4235H25.6136L24.6723 19.2314H20.9072L20.9826 30.7702H29.065C29.3978 30.7702 29.717 30.6351 29.9524 30.3947C30.1878 30.1543 30.32 29.8281 30.32 29.4881V1.28209C30.32 0.94206 30.1878 0.615955 29.9524 0.375516C29.717 0.135077 29.3978 0 29.065 0" fill="#EE992A"/>
</svg>
