<svg width="100" height="99" viewBox="0 0 100 99" fill="none" xmlns="http://www.w3.org/2000/svg">
<path d="M43.7083 9.19881L22.9167 16.9125C18.125 18.6863 14.2084 24.2962 14.2084 29.37V60.0187C14.2084 64.8862 17.4584 71.28 21.4168 74.2087L39.3334 87.4501C45.2084 91.8226 54.875 91.8226 60.75 87.4501L78.6667 74.2087C82.625 71.28 85.875 64.8862 85.875 60.0187V29.37C85.875 24.2962 81.9583 18.6863 77.1666 16.9125L56.375 9.19881C52.8334 7.92006 47.1667 7.92006 43.7083 9.19881Z" stroke="#292D32" stroke-width="1.5" stroke-linecap="round" stroke-linejoin="round"/>
<path d="M50 45.045C49.8333 45.045 49.625 45.045 49.4583 45.045C45.5416 44.9212 42.4166 41.7037 42.4166 37.7849C42.4166 33.7837 45.7083 30.5249 49.75 30.5249C53.7917 30.5249 57.0834 33.7837 57.0834 37.7849C57.0417 41.7449 53.9167 44.9212 50 45.045Z" stroke="#292D32" stroke-width="1.5" stroke-linecap="round" stroke-linejoin="round"/>
<path d="M41.7084 56.5951C37.7084 59.2351 37.7084 63.5663 41.7084 66.2063C46.25 69.2176 53.7084 69.2176 58.25 66.2063C62.25 63.5663 62.25 59.2351 58.25 56.5951C53.75 53.5839 46.2917 53.5839 41.7084 56.5951Z" stroke="#292D32" stroke-width="1.5" stroke-linecap="round" stroke-linejoin="round"/>
</svg>