<svg width="48" height="48" viewBox="0 0 48 48" fill="none" xmlns="http://www.w3.org/2000/svg">
<circle cx="24" cy="24" r="24" fill="#979A9C"/>
<path fill-rule="evenodd" clip-rule="evenodd" d="M38.976 24.3542C38.976 23.2481 38.8767 22.1844 38.6924 21.1633H24V27.1977H32.3956C32.034 29.1477 30.9349 30.7999 29.2827 31.9061V35.8202H34.3244C37.2742 33.1044 38.976 29.1051 38.976 24.3542Z" fill="white"/>
<path fill-rule="evenodd" clip-rule="evenodd" d="M24.0001 39.6001C28.212 39.6001 31.7433 38.2032 34.3244 35.8207L29.2828 31.9065C27.8859 32.8425 26.099 33.3956 24.0001 33.3956C19.937 33.3956 16.4979 30.6514 15.2711 26.9641H10.0593V31.0059C12.6262 36.1043 17.9019 39.6001 24.0001 39.6001Z" fill="white"/>
<path fill-rule="evenodd" clip-rule="evenodd" d="M15.2712 26.9642C14.9592 26.0282 14.782 25.0284 14.782 24.0002C14.782 22.972 14.9592 21.9722 15.2712 21.0362V16.9944H10.0594C9.00287 19.1004 8.40015 21.4829 8.40015 24.0002C8.40015 26.5175 9.00287 28.9 10.0594 31.006L15.2712 26.9642Z" fill="white"/>
<path fill-rule="evenodd" clip-rule="evenodd" d="M24 14.6047C26.2904 14.6047 28.3468 15.3918 29.9635 16.9376L34.4379 12.4632C31.7362 9.94596 28.205 8.40015 24 8.40015C17.9019 8.40015 12.6262 11.896 10.0593 16.9943L15.2711 21.0361C16.4979 17.3489 19.937 14.6047 24 14.6047Z" fill="white"/>
</svg>