<svg width="23" height="20" viewBox="0 0 23 20" fill="none" xmlns="http://www.w3.org/2000/svg">
<path d="M0 8.15917C0.243381 7.71682 0.574309 7.54698 0.951928 7.71238C1.10601 7.78009 1.22332 7.92994 1.34764 8.05094C1.41243 8.11366 1.4562 8.1958 1.53441 8.30292C1.56184 8.20246 1.58168 8.1353 1.59803 8.06703C2.54062 4.13527 5.03337 1.54388 9.09089 0.387218C13.055 -0.742803 17.5129 0.664728 20.0798 3.77173C21.7006 5.73317 22.5002 7.96602 22.3484 10.4531C22.136 13.9436 20.458 16.6848 17.3145 18.4925C14.1178 20.3308 10.7444 20.4784 7.33644 18.9871C5.84873 18.336 4.63941 17.3353 3.66939 16.0782C3.40383 15.7341 3.4511 15.335 3.77911 15.1041C4.10479 14.8749 4.52385 14.9482 4.79233 15.2878C6.20475 17.0756 8.06717 18.1823 10.3877 18.5247C14.7639 19.1708 18.8133 16.8885 20.3454 13.1277C21.9877 9.09549 20.3208 4.65144 16.3923 2.48075C12.7603 0.473801 7.98662 1.19089 5.1752 4.15858C3.99565 5.40349 3.248 6.84599 2.93516 8.49384C2.93283 8.50661 2.93691 8.52104 2.93866 8.53436C2.95792 8.55323 2.97777 8.5721 2.99703 8.59042C3.10383 8.46554 3.2013 8.33178 3.31978 8.218C3.62211 7.92772 4.04759 7.91718 4.33183 8.18303C4.61723 8.44944 4.61431 8.85738 4.31315 9.1471C3.74526 9.6938 3.17504 10.2383 2.5984 10.7766C2.25988 11.0924 1.78654 11.0564 1.52273 10.6889C1.0459 10.0268 0.583647 9.35524 0.116146 8.68699C0.0729559 8.62483 0.0385207 8.55656 0 8.49162C0 8.38062 0 8.26962 0 8.15917Z" fill="#27ACD6"/>
<path d="M12.2324 7.09789C12.2324 7.99758 12.2359 8.89782 12.2289 9.79751C12.2277 9.93849 12.2773 10.0234 12.3923 10.1055C13.6016 10.9703 14.8075 11.8405 16.0156 12.7075C16.1948 12.8362 16.3495 12.9783 16.3816 13.2014C16.423 13.4895 16.3226 13.7259 16.06 13.8769C15.7909 14.0318 15.5166 14.014 15.2633 13.8347C14.6971 13.434 14.1339 13.0294 13.5695 12.627C12.7781 12.0625 11.989 11.4942 11.1929 10.9359C10.949 10.7649 10.8334 10.5523 10.834 10.2665C10.8369 8.30784 10.8346 6.34862 10.8363 4.38995C10.8369 3.96869 11.1322 3.67064 11.539 3.67286C11.9429 3.67508 12.2324 3.97479 12.233 4.39883C12.2336 5.29852 12.2324 6.19821 12.2324 7.09789Z" fill="#27ACD6"/>
</svg>
