<svg width="33" height="31" viewBox="0 0 33 31" fill="none" xmlns="http://www.w3.org/2000/svg">
<path fill-rule="evenodd" clip-rule="evenodd" d="M0.590821 2.56096C0.590821 1.88175 0.871202 1.23036 1.37028 0.750089C1.86937 0.269817 2.54627 3.41411e-06 3.25207 3.41411e-06H29.7806C30.1304 -0.000546329 30.4769 0.0652992 30.8002 0.19377C31.1235 0.322241 31.4173 0.510814 31.6647 0.748693C31.9122 0.986573 32.1085 1.26909 32.2423 1.58006C32.3762 1.89103 32.445 2.22436 32.4448 2.56096V28.0897C32.4452 28.4263 32.3766 28.7597 32.2429 29.0709C32.1092 29.382 31.9131 29.6647 31.6658 29.9028C31.4185 30.1409 31.1248 30.3298 30.8016 30.4586C30.4784 30.5874 30.1319 30.6536 29.7821 30.6534H3.25207C2.90247 30.6534 2.5563 30.5871 2.23332 30.4583C1.91035 30.3295 1.61691 30.1408 1.36977 29.9028C1.12263 29.6649 0.926636 29.3824 0.792981 29.0715C0.659326 28.7606 0.59063 28.4275 0.590821 28.091V2.56096ZM13.1992 11.6873H17.5125V13.7717C18.1351 12.5735 19.7278 11.495 22.1212 11.495C26.7096 11.495 27.797 13.8818 27.797 18.2611V26.3731H23.1536V19.2587C23.1536 16.7646 22.531 15.3574 20.9498 15.3574C18.7563 15.3574 17.8441 16.8747 17.8441 19.2587V26.3731H13.1992V11.6873ZM5.23571 26.1822H9.8806V11.495H5.23571V26.1808V26.1822ZM10.5452 6.70474C10.5539 7.08745 10.4832 7.46799 10.337 7.82402C10.1909 8.18006 9.97232 8.50442 9.69415 8.77806C9.41598 9.05171 9.08381 9.26913 8.71714 9.41757C8.35046 9.56601 7.95667 9.64247 7.55888 9.64247C7.16108 9.64247 6.76729 9.56601 6.40062 9.41757C6.03394 9.26913 5.70177 9.05171 5.4236 8.77806C5.14543 8.50442 4.92686 8.18006 4.78072 7.82402C4.63458 7.46799 4.56381 7.08745 4.57257 6.70474C4.58976 5.95352 4.91193 5.23866 5.4701 4.71322C6.02827 4.18779 6.77805 3.89357 7.55888 3.89357C8.3397 3.89357 9.08948 4.18779 9.64765 4.71322C10.2058 5.23866 10.528 5.95352 10.5452 6.70474Z" fill="#EE992A"/>
</svg>
