<svg width="100" height="100" viewBox="0 0 100 100" fill="none" xmlns="http://www.w3.org/2000/svg">
<path d="M35.4166 79.1666H33.3333C16.6666 79.1666 8.33331 74.9999 8.33331 54.1666V33.3333C8.33331 16.6666 16.6666 8.33325 33.3333 8.33325H66.6667C83.3333 8.33325 91.6667 16.6666 91.6667 33.3333V54.1666C91.6667 70.8332 83.3333 79.1666 66.6667 79.1666H64.5833C63.2917 79.1666 62.0416 79.7916 61.25 80.8332L55 89.1666C52.25 92.8332 47.75 92.8332 45 89.1666L38.75 80.8332C38.0833 79.9166 36.5416 79.1666 35.4166 79.1666Z" stroke="#292D32" stroke-width="1.5" stroke-miterlimit="10" stroke-linecap="round" stroke-linejoin="round"/>
<path d="M34.4395 46.938L33.6475 48.288L30.5335 46.488C30.3175 46.356 30.1255 46.224 29.9575 46.092C29.7895 45.96 29.6395 45.792 29.5075 45.588C29.6995 45.984 29.7955 46.422 29.7955 46.902V50.466H28.2115V46.92C28.2115 46.68 28.2235 46.458 28.2475 46.254C28.2835 46.05 28.3495 45.852 28.4455 45.66C28.3135 45.828 28.1695 45.978 28.0135 46.11C27.8575 46.242 27.6775 46.368 27.4735 46.488L24.3775 48.27L23.5855 46.92L26.6815 45.12C27.1375 44.844 27.5935 44.7 28.0495 44.688C27.8095 44.664 27.5755 44.622 27.3475 44.562C27.1315 44.49 26.9095 44.382 26.6815 44.238L23.5675 42.42L24.3595 41.07L27.4735 42.87C27.6895 43.002 27.8815 43.14 28.0495 43.284C28.2175 43.428 28.3675 43.602 28.4995 43.806C28.3075 43.386 28.2115 42.936 28.2115 42.456V38.892H29.7955V42.438C29.7955 42.678 29.7775 42.906 29.7415 43.122C29.7175 43.326 29.6575 43.524 29.5615 43.716C29.6935 43.548 29.8375 43.398 29.9935 43.266C30.1495 43.134 30.3295 43.002 30.5335 42.87L33.6295 41.088L34.4215 42.438L31.3255 44.238C31.1215 44.37 30.9175 44.472 30.7135 44.544C30.5095 44.616 30.2935 44.664 30.0655 44.688C30.2935 44.712 30.5095 44.76 30.7135 44.832C30.9175 44.892 31.1215 44.988 31.3255 45.12L34.4395 46.938Z" fill="black"/>
<path d="M55.4395 46.938L54.6475 48.288L51.5335 46.488C51.3175 46.356 51.1255 46.224 50.9575 46.092C50.7895 45.96 50.6395 45.792 50.5075 45.588C50.6995 45.984 50.7955 46.422 50.7955 46.902V50.466H49.2115V46.92C49.2115 46.68 49.2235 46.458 49.2475 46.254C49.2835 46.05 49.3495 45.852 49.4455 45.66C49.3135 45.828 49.1695 45.978 49.0135 46.11C48.8575 46.242 48.6775 46.368 48.4735 46.488L45.3775 48.27L44.5855 46.92L47.6815 45.12C48.1375 44.844 48.5935 44.7 49.0495 44.688C48.8095 44.664 48.5755 44.622 48.3475 44.562C48.1315 44.49 47.9095 44.382 47.6815 44.238L44.5675 42.42L45.3595 41.07L48.4735 42.87C48.6895 43.002 48.8815 43.14 49.0495 43.284C49.2175 43.428 49.3675 43.602 49.4995 43.806C49.3075 43.386 49.2115 42.936 49.2115 42.456V38.892H50.7955V42.438C50.7955 42.678 50.7775 42.906 50.7415 43.122C50.7175 43.326 50.6575 43.524 50.5615 43.716C50.6935 43.548 50.8375 43.398 50.9935 43.266C51.1495 43.134 51.3295 43.002 51.5335 42.87L54.6295 41.088L55.4215 42.438L52.3255 44.238C52.1215 44.37 51.9175 44.472 51.7135 44.544C51.5095 44.616 51.2935 44.664 51.0655 44.688C51.2935 44.712 51.5095 44.76 51.7135 44.832C51.9175 44.892 52.1215 44.988 52.3255 45.12L55.4395 46.938Z" fill="black"/>
<path d="M76.4395 46.938L75.6475 48.288L72.5335 46.488C72.3175 46.356 72.1255 46.224 71.9575 46.092C71.7895 45.96 71.6395 45.792 71.5075 45.588C71.6995 45.984 71.7955 46.422 71.7955 46.902V50.466H70.2115V46.92C70.2115 46.68 70.2235 46.458 70.2475 46.254C70.2835 46.05 70.3495 45.852 70.4455 45.66C70.3135 45.828 70.1695 45.978 70.0135 46.11C69.8575 46.242 69.6775 46.368 69.4735 46.488L66.3775 48.27L65.5855 46.92L68.6815 45.12C69.1375 44.844 69.5935 44.7 70.0495 44.688C69.8095 44.664 69.5755 44.622 69.3475 44.562C69.1315 44.49 68.9095 44.382 68.6815 44.238L65.5675 42.42L66.3595 41.07L69.4735 42.87C69.6895 43.002 69.8815 43.14 70.0495 43.284C70.2175 43.428 70.3675 43.602 70.4995 43.806C70.3075 43.386 70.2115 42.936 70.2115 42.456V38.892H71.7955V42.438C71.7955 42.678 71.7775 42.906 71.7415 43.122C71.7175 43.326 71.6575 43.524 71.5615 43.716C71.6935 43.548 71.8375 43.398 71.9935 43.266C72.1495 43.134 72.3295 43.002 72.5335 42.87L75.6295 41.088L76.4215 42.438L73.3255 44.238C73.1215 44.37 72.9175 44.472 72.7135 44.544C72.5095 44.616 72.2935 44.664 72.0655 44.688C72.2935 44.712 72.5095 44.76 72.7135 44.832C72.9175 44.892 73.1215 44.988 73.3255 45.12L76.4395 46.938Z" fill="black"/>
</svg>