<svg width="16" height="17" viewBox="0 0 16 17" fill="none" xmlns="http://www.w3.org/2000/svg">
<path fill-rule="evenodd" clip-rule="evenodd" d="M12.0003 5.95866H11.3337V4.62533C11.3337 2.78533 9.84032 1.29199 8.00033 1.29199C6.16033 1.29199 4.66699 2.78533 4.66699 4.62533V5.95866H4.00033C3.26699 5.95866 2.66699 6.55866 2.66699 7.29199V13.9587C2.66699 14.692 3.26699 15.292 4.00033 15.292H12.0003C12.7337 15.292 13.3337 14.692 13.3337 13.9587V7.29199C13.3337 6.55866 12.7337 5.95866 12.0003 5.95866ZM8.00033 11.9587C7.26699 11.9587 6.66699 11.3587 6.66699 10.6253C6.66699 9.89199 7.26699 9.29199 8.00033 9.29199C8.73366 9.29199 9.33366 9.89199 9.33366 10.6253C9.33366 11.3587 8.73366 11.9587 8.00033 11.9587ZM6.00033 4.62533V5.95866H10.0003V4.62533C10.0003 3.51866 9.10699 2.62533 8.00033 2.62533C6.89366 2.62533 6.00033 3.51866 6.00033 4.62533Z" fill="#5B5B5B"/>
</svg>
