<svg width="29" height="30" viewBox="0 0 29 30" fill="none" xmlns="http://www.w3.org/2000/svg">
<path d="M19.4939 13.4273C20.6901 13.4273 21.6598 12.4577 21.6598 11.2615C21.6598 10.0654 20.6901 9.0957 19.4939 9.0957C18.2978 9.0957 17.3281 10.0654 17.3281 11.2615C17.3281 12.4577 18.2978 13.4273 19.4939 13.4273Z" fill="#575757"/>
<path d="M9.38652 13.4273C10.5827 13.4273 11.5523 12.4577 11.5523 11.2615C11.5523 10.0654 10.5827 9.0957 9.38652 9.0957C8.19037 9.0957 7.2207 10.0654 7.2207 11.2615C7.2207 12.4577 8.19037 13.4273 9.38652 13.4273Z" fill="#575757"/>
<path d="M14.44 19.9266C16.6058 19.9266 18.4828 21.0817 19.3491 22.8143H21.8037C20.6486 19.9266 17.7609 17.7607 14.44 17.7607C11.119 17.7607 8.23127 19.9266 7.07617 22.8143H9.53077C10.3971 21.0817 12.2741 19.9266 14.44 19.9266Z" fill="#575757"/>
<path d="M14.4388 0.435547C6.49745 0.435547 0 6.933 0 14.8743C0 22.8157 6.49745 29.3131 14.4388 29.3131C22.3801 29.3131 28.8776 22.8157 28.8776 14.8743C28.8776 6.933 22.3801 0.435547 14.4388 0.435547ZM14.4388 26.4254C8.08572 26.4254 2.88776 21.2274 2.88776 14.8743C2.88776 8.52127 8.08572 3.3233 14.4388 3.3233C20.7919 3.3233 25.9898 8.52127 25.9898 14.8743C25.9898 21.2274 20.7919 26.4254 14.4388 26.4254Z" fill="#575757"/>
</svg>
