<svg width="23" height="23" viewBox="0 0 23 23" fill="none" xmlns="http://www.w3.org/2000/svg">
<path d="M15.9877 14.0692H14.9773L14.6192 13.7238C15.8726 12.2658 16.6272 10.3728 16.6272 8.31361C16.6272 3.72194 12.9053 0 8.31361 0C3.72194 0 0 3.72194 0 8.31361C0 12.9053 3.72194 16.6272 8.31361 16.6272C10.3728 16.6272 12.2658 15.8726 13.7238 14.6192L14.0692 14.9773V15.9877L20.4643 22.37L22.37 20.4643L15.9877 14.0692ZM8.31361 14.0692C5.12886 14.0692 2.55803 11.4984 2.55803 8.31361C2.55803 5.12886 5.12886 2.55803 8.31361 2.55803C11.4984 2.55803 14.0692 5.12886 14.0692 8.31361C14.0692 11.4984 11.4984 14.0692 8.31361 14.0692Z" fill="#1FB4E1" fill-opacity="0.5"/>
</svg>
