<svg width="29" height="30" viewBox="0 0 29 30" fill="none" xmlns="http://www.w3.org/2000/svg">
<path d="M19.4949 13.3463C20.6911 13.3463 21.6607 12.3766 21.6607 11.1805C21.6607 9.98432 20.6911 9.01465 19.4949 9.01465C18.2988 9.01465 17.3291 9.98432 17.3291 11.1805C17.3291 12.3766 18.2988 13.3463 19.4949 13.3463Z" fill="#EE992A"/>
<path d="M9.3875 13.3463C10.5836 13.3463 11.5533 12.3766 11.5533 11.1805C11.5533 9.98432 10.5836 9.01465 9.3875 9.01465C8.19135 9.01465 7.22168 9.98432 7.22168 11.1805C7.22168 12.3766 8.19135 13.3463 9.3875 13.3463Z" fill="#EE992A"/>
<path d="M14.4388 20.5649C12.3018 20.5649 10.4681 19.3953 9.45741 17.6771H7.04613C8.20123 20.6371 11.0746 22.7307 14.4388 22.7307C17.803 22.7307 20.6763 20.6371 21.8314 17.6771H19.4202C18.4095 19.3953 16.5757 20.5649 14.4388 20.5649ZM14.4243 0.350586C6.45414 0.350586 0 6.81916 0 14.7894C0 22.7596 6.45414 29.2282 14.4243 29.2282C22.409 29.2282 28.8776 22.7596 28.8776 14.7894C28.8776 6.81916 22.409 0.350586 14.4243 0.350586ZM14.4388 26.3404C8.05684 26.3404 2.88776 21.1713 2.88776 14.7894C2.88776 8.40743 8.05684 3.23834 14.4388 3.23834C20.8207 3.23834 25.9898 8.40743 25.9898 14.7894C25.9898 21.1713 20.8207 26.3404 14.4388 26.3404Z" fill="#EE992A"/>
</svg>
