<svg width="33" height="31" viewBox="0 0 33 31" fill="none" xmlns="http://www.w3.org/2000/svg">
<path d="M29.5643 0H4.3667C2.46972 0 0.930664 1.47109 0.930664 3.28429V27.3691C0.930664 29.1823 2.46972 30.6534 4.3667 30.6534H29.5643C31.4613 30.6534 33.0004 29.1823 33.0004 27.3691V3.28429C33.0004 1.47109 31.4613 0 29.5643 0ZM26.0639 10.8655C26.0782 11.0571 26.0782 11.2555 26.0782 11.4471C26.0782 17.3794 21.3536 24.2148 12.7206 24.2148C10.0576 24.2148 7.58799 23.4758 5.51205 22.2032C5.89144 22.2442 6.25652 22.2579 6.64308 22.2579C8.84071 22.2579 10.8594 21.5463 12.47 20.3421C10.4084 20.301 8.67607 19.0078 8.08192 17.2288C8.80492 17.3315 9.45633 17.3315 10.2008 17.1467C8.05329 16.7294 6.44264 14.923 6.44264 12.7403V12.6856C7.06542 13.0209 7.79558 13.2261 8.56153 13.2535C7.91758 12.8441 7.38969 12.2886 7.02496 11.6368C6.66023 10.9849 6.47001 10.2568 6.47128 9.5176C6.47128 8.68285 6.70035 7.91651 7.10838 7.25281C9.42054 9.97604 12.8924 11.755 16.7865 11.9466C16.1208 8.9018 18.5046 6.43174 21.3679 6.43174C22.7209 6.43174 23.9378 6.97228 24.7968 7.84809C25.8563 7.65651 26.8728 7.28018 27.7747 6.76701C27.424 7.80704 26.6866 8.68285 25.7131 9.23707C26.658 9.14128 27.5743 8.88812 28.419 8.53916C27.7819 9.4355 26.9801 10.2292 26.0639 10.8655Z" fill="#EE992A"/>
</svg>
