<svg width="42" height="31" viewBox="0 0 42 31" fill="none" xmlns="http://www.w3.org/2000/svg">
<path d="M40.8309 4.78576C41.7623 8.19978 41.7623 15.3267 41.7623 15.3267C41.7623 15.3267 41.7623 22.4536 40.8309 25.8676C40.3132 27.7547 38.7988 29.2395 36.8808 29.7415C33.3975 30.6534 21.3802 30.6534 21.3802 30.6534C21.3802 30.6534 9.36899 30.6534 5.87957 29.7415C3.95346 29.2318 2.4411 27.749 1.92951 25.8676C0.998047 22.4536 0.998047 15.3267 0.998047 15.3267C0.998047 15.3267 0.998047 8.19978 1.92951 4.78576C2.44722 2.89866 3.96161 1.41389 5.87957 0.911938C9.36899 -2.89824e-07 21.3802 0 21.3802 0C21.3802 0 33.3975 -2.89824e-07 36.8808 0.911938C38.8069 1.42155 40.3193 2.90441 40.8309 4.78576ZM17.3038 22.0321L29.5331 15.3267L17.3038 8.62127V22.0321Z" fill="#EE992A"/>
</svg>
